<svg width="100" height="100" viewBox="0 0 100 100" fill="none" xmlns="http://www.w3.org/2000/svg">
<path d="M21.6763 11.9267C33.1411 20.5337 45.4727 37.9852 50.0003 47.3506C54.5282 37.9859 66.8592 20.5336 78.3243 11.9267C86.5966 5.71622 100 0.910907 100 16.2017C100 19.2555 98.2491 41.855 97.2223 45.5239C93.6528 58.2797 80.6458 61.5331 69.0759 59.564C89.2999 63.0061 94.4447 74.4074 83.3339 85.8087C62.2323 107.462 53.0048 80.3758 50.6393 73.4353C50.2058 72.163 50.003 71.5677 50 72.0739C49.997 71.5677 49.7942 72.163 49.3607 73.4353C46.9963 80.3758 37.7689 107.463 16.6661 85.8087C5.55514 74.4074 10.6998 63.0054 30.9241 59.564C19.3539 61.5331 6.34669 58.2797 2.77774 45.5239C1.75082 41.8546 0 19.2551 0 16.2017C0 0.910907 13.4037 5.71622 21.6757 11.9267H21.6763Z" fill="white"/>
</svg>
