<svg width="100" height="100" viewBox="0 0 100 100" fill="none" xmlns="http://www.w3.org/2000/svg">
<path d="M84.6542 18.2205C78.2806 15.2972 71.4458 13.1435 64.2996 11.9099C64.1694 11.8861 64.0394 11.9456 63.9724 12.0646C63.0934 13.6274 62.1197 15.6661 61.4379 17.2685C53.7517 16.1183 46.1049 16.1183 38.5763 17.2685C37.8944 15.6305 36.8854 13.6274 36.0024 12.0646C35.9354 11.9496 35.8054 11.8901 35.6752 11.9099C28.533 13.1395 21.6982 15.2933 15.3206 18.2205C15.2654 18.2443 15.218 18.284 15.1866 18.3356C2.22247 37.6957 -1.32896 56.58 0.413251 75.2302C0.421134 75.3214 0.472374 75.4087 0.543325 75.4642C9.0967 81.743 17.3821 85.5548 25.5137 88.0814C25.6438 88.1211 25.7817 88.0735 25.8645 87.9663C27.788 85.3407 29.5027 82.5721 30.9728 79.6606C31.0596 79.4901 30.9768 79.2878 30.7994 79.2204C28.0797 78.1891 25.49 76.9317 22.9989 75.5039C22.8018 75.3889 22.7861 75.1071 22.9673 74.9723C23.4916 74.5796 24.0159 74.171 24.5165 73.7585C24.607 73.6832 24.7332 73.6673 24.8397 73.7149C41.2054 81.1838 58.9231 81.1838 75.0956 73.7149C75.2021 73.6634 75.3283 73.6793 75.4228 73.7546C75.9235 74.1671 76.4477 74.5796 76.9759 74.9723C77.1572 75.1071 77.1454 75.3889 76.9483 75.5039C74.4572 76.9595 71.8675 78.1891 69.1438 79.2164C68.9665 79.2839 68.8876 79.4901 68.9744 79.6606C70.4761 82.568 72.1907 85.3366 74.0787 87.9624C74.1576 88.0735 74.2994 88.1211 74.4296 88.0814C82.6006 85.5548 90.8859 81.743 99.4393 75.4642C99.5142 75.4087 99.5615 75.3254 99.5694 75.2341C101.655 53.6725 96.077 34.9431 84.7842 18.3395C84.7566 18.284 84.7094 18.2443 84.6542 18.2205ZM33.4168 63.8742C28.4896 63.8742 24.4297 59.3525 24.4297 53.7995C24.4297 48.2464 28.4108 43.7248 33.4168 43.7248C38.462 43.7248 42.4825 48.2861 42.4037 53.7995C42.4037 59.3525 38.4225 63.8742 33.4168 63.8742ZM66.6448 63.8742C61.7177 63.8742 57.6579 59.3525 57.6579 53.7995C57.6579 48.2464 61.6389 43.7248 66.6448 43.7248C71.6901 43.7248 75.7106 48.2861 75.6318 53.7995C75.6318 59.3525 71.6901 63.8742 66.6448 63.8742Z" fill="white"/>
</svg>
