<svg width="100" height="100" viewBox="0 0 100 100" fill="none" xmlns="http://www.w3.org/2000/svg">
<g clip-path="url(#clip0_1_15)">
<path fill-rule="evenodd" clip-rule="evenodd" d="M49.851 0C22.2847 0 0 22.9167 0 51.2677C0 73.9302 14.2786 93.1135 34.0867 99.9031C36.5633 100.414 37.4704 98.8 37.4704 97.4427C37.4704 96.2542 37.3888 92.1802 37.3888 87.9354C23.5214 90.9917 20.6337 81.824 20.6337 81.824C18.4051 75.8823 15.1031 74.3552 15.1031 74.3552C10.5643 71.2146 15.4337 71.2146 15.4337 71.2146C20.4684 71.5542 23.1102 76.4771 23.1102 76.4771C27.5663 84.2854 34.7469 82.0792 37.6357 80.7208C38.048 77.4104 39.3694 75.1187 40.7724 73.8458C29.7122 72.6573 18.0755 68.2437 18.0755 48.551C18.0755 42.949 20.0551 38.3656 23.1918 34.801C22.6969 33.5281 20.9633 28.2646 23.6878 21.2198C23.6878 21.2198 27.8969 19.8615 37.3878 26.4823C41.4511 25.3601 45.6416 24.7892 49.851 24.7844C54.0602 24.7844 58.351 25.3792 62.3133 26.4823C71.8051 19.8615 76.0143 21.2198 76.0143 21.2198C78.7388 28.2646 77.0041 33.5281 76.5092 34.801C79.7286 38.3656 81.6265 42.949 81.6265 48.551C81.6265 68.2437 69.9898 72.5719 58.8469 73.8458C60.6633 75.4583 62.2306 78.5135 62.2306 83.3521C62.2306 90.2271 62.149 95.7448 62.149 97.4417C62.149 98.8 63.0571 100.414 65.5327 99.9042C85.3408 93.1125 99.6194 73.9302 99.6194 51.2677C99.701 22.9167 77.3347 0 49.851 0Z" fill="white"/>
</g>
<defs>
<clipPath id="clip0_1_15">
<rect width="100" height="100" fill="white"/>
</clipPath>
</defs>
</svg>
