<svg width="100" height="100" viewBox="0 0 100 100" fill="none" xmlns="http://www.w3.org/2000/svg">
<path d="M99.9983 51.1722C99.7743 45.1257 94.6983 40.4042 88.6332 40.6095C85.9458 40.7028 83.3891 41.8039 81.4483 43.6514C72.9011 37.8289 62.861 34.6377 52.5409 34.4137L57.4117 10.993L73.4796 14.3708C73.9275 18.4951 77.6226 21.481 81.7469 21.0331C85.8712 20.5852 88.8571 16.8902 88.4092 12.7659C87.9613 8.64157 84.2663 5.65566 80.142 6.10355C77.7719 6.34615 75.6444 7.72714 74.4687 9.77995L56.0681 6.10355C54.8177 5.82362 53.5673 6.60742 53.2874 7.87643C53.2874 7.8951 53.2874 7.8951 53.2874 7.91376L47.7448 33.9658C37.2941 34.1338 27.1234 37.3437 18.4642 43.2035C14.06 39.0606 7.11775 39.2658 2.9748 43.6887C-1.16815 48.0929 -0.962871 55.0352 3.46001 59.1781C4.31846 59.9806 5.30754 60.6711 6.4086 61.1563C6.33395 62.2574 6.33395 63.3584 6.4086 64.4595C6.4086 81.2739 26.0036 94.9531 50.1709 94.9531C74.3381 94.9531 93.9332 81.2925 93.9332 64.4595C94.0078 63.3584 94.0078 62.2574 93.9332 61.1563C97.7029 59.2714 100.073 55.3898 99.9983 51.1722ZM24.9213 58.6929C24.9213 54.55 28.2991 51.1722 32.442 51.1722C36.585 51.1722 39.9628 54.55 39.9628 58.6929C39.9628 62.8359 36.585 66.2137 32.442 66.2137C28.2804 66.1764 24.9213 62.8359 24.9213 58.6929ZM68.5342 79.333C63.1969 83.3454 56.6652 85.3982 49.9843 85.1182C43.3033 85.3982 36.7716 83.3454 31.4343 79.333C30.7251 78.4746 30.8558 77.1869 31.7142 76.4778C32.4607 75.8619 33.5244 75.8619 34.2896 76.4778C38.8057 79.7809 44.311 81.4605 49.9096 81.1992C55.5082 81.4978 61.0321 79.8929 65.6043 76.6271C66.4254 75.8246 67.7691 75.8433 68.5716 76.6644C69.374 77.4855 69.3554 78.8292 68.5342 79.6316V79.333ZM67.1906 66.475C63.0476 66.475 59.6698 63.0971 59.6698 58.9542C59.6698 54.8112 63.0476 51.4334 67.1906 51.4334C71.3335 51.4334 74.7113 54.8112 74.7113 58.9542C74.8793 63.0971 71.6508 66.5869 67.5078 66.7549C67.3772 66.7549 67.2652 66.7549 67.1346 66.7549L67.1906 66.475Z" fill="white"/>
</svg>
